<svg id="Group_30" data-name="Group 30" xmlns="http://www.w3.org/2000/svg" width="21.802" height="29.406" viewBox="0 0 21.802 29.406">
    <g id="Group_29" data-name="Group 29">
        <path id="Path_57" data-name="Path 57" d="M414.014,1169.932a10.913,10.913,0,0,1-10.9-10.9c0-5.542,8.674-16.681,9.664-17.933a1.624,1.624,0,0,1,2.475,0c.99,1.253,9.663,12.4,9.663,17.932a10.911,10.911,0,0,1-10.9,10.9Zm0-28.5a.648.648,0,0,0-.505.245c-3.515,4.448-9.463,13.109-9.463,17.354a9.968,9.968,0,0,0,19.936,0c0-5.223-8.494-16.128-9.463-17.354h0A.639.639,0,0,0,414.014,1141.431Z" transform="translate(-403.113 -1140.526)" fill="#fff"/>
    </g>
</svg>
