<svg xmlns="http://www.w3.org/2000/svg" width="55" height="54.638" viewBox="0 0 55 54.638">
    <g id="Group_60" data-name="Group 60" transform="translate(-4464.966 -514.934)">
        <g id="Group_59" data-name="Group 59" transform="translate(4464.966 514.934)">
            <path id="Path_94" data-name="Path 94" d="M4493.309,569.572a28.345,28.345,0,0,1-10.943-54.492,1.876,1.876,0,0,1,2.483,2.385,24.58,24.58,0,0,0,32.517,31.26,1.876,1.876,0,0,1,2.483,2.385A28.458,28.458,0,0,1,4493.309,569.572Zm-13.218-49.086a24.586,24.586,0,1,0,34.444,33.105,28.363,28.363,0,0,1-35.006-27.554A27.746,27.746,0,0,1,4480.091,520.486Z" transform="translate(-4464.966 -514.934)" fill="#fff"/>
        </g>
    </g>
</svg>
