<svg xmlns="http://www.w3.org/2000/svg" width="55" height="55.005" viewBox="0 0 55 55.005">
    <g id="Group_20" data-name="Group 20" transform="translate(-1114.202 -413.605)">
        <g id="Group_20-2" data-name="Group 20" transform="translate(1126.803 426.214)">
            <path id="Path_48" data-name="Path 48" d="M1150.428,464.739a14.9,14.9,0,1,1,14.9-14.9A14.912,14.912,0,0,1,1150.428,464.739Zm0-27.077a12.182,12.182,0,1,0,12.182,12.182A12.2,12.2,0,0,0,1150.428,437.662Z" transform="translate(-1135.533 -434.949)" fill="#fff"/>
        </g>
        <g id="Group_21" data-name="Group 21" transform="translate(1140.342 413.605)">
            <path id="Path_49" data-name="Path 49" d="M1159.807,422.924a1.357,1.357,0,0,1-1.357-1.357v-6.605a1.357,1.357,0,1,1,2.713,0v6.605A1.356,1.356,0,0,1,1159.807,422.924Z" transform="translate(-1158.45 -413.605)" fill="#fff"/>
        </g>
        <g id="Group_22" data-name="Group 22" transform="translate(1154.218 421.341)">
            <path id="Path_50" data-name="Path 50" d="M1183.3,434.066a1.357,1.357,0,0,1-.956-2.32l4.691-4.651a1.357,1.357,0,1,1,1.911,1.926l-4.691,4.652A1.355,1.355,0,0,1,1183.3,434.066Z" transform="translate(-1181.939 -426.701)" fill="#fff"/>
        </g>
        <g id="Group_23" data-name="Group 23" transform="translate(1159.883 439.917)">
            <path id="Path_51" data-name="Path 51" d="M1199.491,460.914h-.011l-6.606-.055a1.357,1.357,0,0,1,.011-2.714h.012l6.606.056a1.357,1.357,0,0,1-.012,2.713Z" transform="translate(-1191.529 -458.145)" fill="#fff"/>
        </g>
        <g id="Group_24" data-name="Group 24" transform="translate(1153.985 453.744)">
            <path id="Path_52" data-name="Path 52" d="M1187.512,488.994a1.354,1.354,0,0,1-.972-.409l-4.611-4.73a1.357,1.357,0,0,1,1.943-1.895l4.611,4.73a1.357,1.357,0,0,1-.972,2.3Z" transform="translate(-1181.544 -481.551)" fill="#fff"/>
        </g>
        <g id="Group_25" data-name="Group 25" transform="translate(1139.901 459.291)">
            <path id="Path_53" data-name="Path 53" d="M1159.062,500.26h-.023a1.357,1.357,0,0,1-1.334-1.38l.112-6.6a1.357,1.357,0,0,1,1.356-1.334h.023a1.357,1.357,0,0,1,1.334,1.38l-.111,6.6A1.357,1.357,0,0,1,1159.062,500.26Z" transform="translate(-1157.705 -490.941)" fill="#fff"/>
        </g>
        <g id="Group_26" data-name="Group 26" transform="translate(1121.468 453.277)">
            <path id="Path_54" data-name="Path 54" d="M1127.858,488.045a1.356,1.356,0,0,1-.939-2.336l4.768-4.572a1.357,1.357,0,1,1,1.878,1.958l-4.768,4.572A1.353,1.353,0,0,1,1127.858,488.045Z" transform="translate(-1126.501 -480.759)" fill="#fff"/>
        </g>
        <g id="Group_27" data-name="Group 27" transform="translate(1114.202 439.092)">
            <path id="Path_55" data-name="Path 55" d="M1122.164,459.629h-.036l-6.6-.167a1.357,1.357,0,1,1,.069-2.713l6.6.167a1.357,1.357,0,0,1-.034,2.713Z" transform="translate(-1114.202 -456.748)" fill="#fff"/>
        </g>
        <g id="Group_28" data-name="Group 28" transform="translate(1122.405 420.727)">
            <path id="Path_56" data-name="Path 56" d="M1133.976,433.181a1.356,1.356,0,0,1-.988-.426l-4.532-4.806a1.357,1.357,0,0,1,1.975-1.861l4.531,4.806a1.357,1.357,0,0,1-.987,2.287Z" transform="translate(-1128.087 -425.661)" fill="#fff"/>
        </g>
    </g>
</svg>
