<svg id="Group_35" data-name="Group 35" xmlns="http://www.w3.org/2000/svg" width="12.905" height="25.922" viewBox="0 0 12.905 25.922">
    <g id="Group_33" data-name="Group 33">
        <path id="Path_67" data-name="Path 67" d="M650.623,1157.419v-10.4a2.832,2.832,0,1,0-5.6,0v10.4a6.451,6.451,0,1,0,5.6,0Zm-2.8,11.329a5.515,5.515,0,0,1-1.864-10.708v-.986h0v-10.031a1.913,1.913,0,1,1,3.732,0v10.029h0v.719c0,.044-.011.086-.013.13h.013v.138a5.516,5.516,0,0,1-1.864,10.708Z" transform="translate(-641.371 -1143.759)" fill="#fff"/>
    </g>
    <g id="Group_34" data-name="Group 34" transform="translate(3.984 17.001)">
        <path id="Path_68" data-name="Path 68" d="M651.291,1175.557a2.468,2.468,0,1,0,2.468,2.468A2.468,2.468,0,0,0,651.291,1175.557Z" transform="translate(-648.823 -1175.557)" fill="#fff"/>
    </g>
</svg>
