<svg xmlns="http://www.w3.org/2000/svg" width="25.698" height="22.154" viewBox="0 0 25.698 22.154">
    <g id="Group_41" data-name="Group 41" transform="translate(0)">
        <g id="Group_38" data-name="Group 38">
            <path id="Path_73" data-name="Path 73" d="M925.681,1146.586a4.217,4.217,0,0,0-4.211,4.206h.933a3.279,3.279,0,1,1,3.279,3.285l-.02,0v0h-11.71a.466.466,0,0,0,0,.933h11.73a4.212,4.212,0,0,0,0-8.424Z" transform="translate(-913.485 -1146.586)" fill="#fff"/>
        </g>
        <g id="Group_39" data-name="Group 39" transform="translate(0 13.73)">
            <path id="Path_74" data-name="Path 74" d="M931.978,1180.69a4.217,4.217,0,0,1-4.211-4.206h.933a3.279,3.279,0,1,0,3.279-3.285l-.019,0v0H913.951a.466.466,0,0,1,0-.933h18.027a4.212,4.212,0,0,1,0,8.424Z" transform="translate(-913.485 -1172.266)" fill="#fff"/>
        </g>
        <g id="Group_40" data-name="Group 40" transform="translate(0 3.288)">
            <path id="Path_75" data-name="Path 75" d="M934.971,1152.736a4.217,4.217,0,0,0-4.211,4.206h.933a3.279,3.279,0,1,1,3.279,3.286l-.02,0v0h-21a.466.466,0,0,0,0,.933h21.02a4.212,4.212,0,0,0,0-8.424Z" transform="translate(-913.485 -1152.736)" fill="#fff"/>
        </g>
    </g>
</svg>
