<svg xmlns="http://www.w3.org/2000/svg" width="53.66" height="157.278" viewBox="0 0 53.66 157.278">
    <g id="Group_123" data-name="Group 123" transform="translate(0)">
        <g id="Group_119" data-name="Group 119" transform="translate(0 17.836)">
            <path id="Path_296" data-name="Path 296" d="M1162.831,507.9a16.464,16.464,0,0,1-2.832,8.711c-.656,1.18-1.583.834-1.636.023-.5.91-1.709-.015-1.161-1.13.566-1.151.789-4.992.338-5.112s-.531.581-.908,1.807-1.588.626-1.476-.661a47.292,47.292,0,0,1,1.167-5.462c.714-2.965-4.245-21.728-5.04-27.675-.037.833-.627,6.508.021,9.7,1.063,5.242,2.564,9.392,3.155,22.93.163,3.772-.28,16.3-1.07,29.268-.914,15.017-2.318,30.627-2.411,33.922-.065,2.293,5.575,6.115,6,7.012a.408.408,0,0,1-.4.538c.2.369-.321.633-.565.522.142.3-.4.671-.764.32.217.526-.529.912-1.039.386.456,1-1.242,1.24-2.465.773a41,41,0,0,1-7.891-3.745c-1.6-1.217-1.608-2.174-1.738-4.819-.242-4.9-2.613-27.564-3.171-34.564-.47-5.862-2.265-21.116-2.528-28.059a2.728,2.728,0,0,1-.652-.028c-.263,6.942-1.92,22.225-2.39,28.086-.559,7-2.929,29.668-3.17,34.564-.131,2.646-.132,3.6-1.738,4.819a36.446,36.446,0,0,1-7.891,3.745c-1.238.432-2.92.227-2.465-.773-.51.526-1.257.14-1.038-.386-.365.351-.907-.023-.766-.32-.244.111-.766-.153-.565-.522a.409.409,0,0,1-.4-.538c.425-.9,6.066-4.72,6-7.012-.094-3.285-1.539-18.959-2.494-34.077-.832-13.147-1.317-25.873-1.153-29.661.591-13.539,1.74-17.511,3.355-22.83.837-2.757-.089-8.422-.127-9.256-.8,5.948-5.641,24.711-4.927,27.675a47.659,47.659,0,0,1,1.168,5.462c.111,1.286-1.1,1.883-1.477.661s-.459-1.928-.908-1.807-.228,3.961.337,5.112c.549,1.115-.662,2.04-1.16,1.13-.052.811-.98,1.157-1.635-.023a16.446,16.446,0,0,1-2.832-8.711c-.908-12.419,2.357-33.7,5.528-46.721a10.236,10.236,0,0,1,6.87-7.564c3.547-1.03,8.614-2.561,9.147-3.432a6.328,6.328,0,0,0,.447-2.594c.023-.814-.006-1.636-.047-2.218-.085-1.239,4.106-.709,4.728-.625.57-.078,4.16-.532,4.669.358a.465.465,0,0,1,.058.266c-.013.185-.024.392-.034.617,0,.032,0,.065,0,.1a19.58,19.58,0,0,0,.048,2.471,6.2,6.2,0,0,0,.216,1.215,1.94,1.94,0,0,0,.176.412.818.818,0,0,0,.184.2c1.073.893,5.672,2.279,8.961,3.234a10.326,10.326,0,0,1,6.87,7.564C1160.624,474.017,1163.737,495.483,1162.831,507.9Z" transform="translate(-1109.33 -444.563)" fill="#f2cdbf"/>
        </g>
        <path id="Path_297" data-name="Path 297" d="M1226.474,456.193c-4.176,1.18-8.276-.4-9.869-2.742,0-.017,0-.032,0-.047.024-.371.43-.24.408-.721a.335.335,0,0,0-.034-.126c.774-1.161,5.153-.064,5.153-.064h.018a14.9,14.9,0,0,1,3.7-.6,19.581,19.581,0,0,0,.048,2.471,6.2,6.2,0,0,0,.216,1.215,1.953,1.953,0,0,0,.176.411A.82.82,0,0,0,1226.474,456.193Z" transform="translate(-1194.333 -432.537)" fill="#ebae8d"/>
        <path id="Path_298" data-name="Path 298" d="M1261.878,447.378a.3.3,0,0,0-.018-.043l.011.006A.2.2,0,0,1,1261.878,447.378Z" transform="translate(-1230.192 -428.924)" fill="#ebae8d"/>
        <g id="Group_120" data-name="Group 120" transform="translate(17.612 0)">
            <path id="Path_299" data-name="Path 299" d="M1213.422,375.2s.515-3.966-.476-6.275c-.774-1.805-3.168-4.283-7.477-4.283h-.009a8.15,8.15,0,0,0-7.462,4.863,12.481,12.481,0,0,0-.487,5.664.416.416,0,0,0-.525.041c-.529.488.509,2.468.643,2.84s-.053,1.84.88,1.9c.256,1.228,1.483,6.312,7.29,6.312,5.666,0,6.389-5.247,6.621-6.312.933-.061.746-1.528.879-1.9s1.129-2.462.714-2.863A.433.433,0,0,0,1213.422,375.2Z" transform="translate(-1196.281 -363.4)" fill="#f2cdbf"/>
            <path id="Path_300" data-name="Path 300" d="M1239.505,414.672c-.036,1.532.87,2.523.838,3.227s-.817.637-1.266.632" transform="translate(-1229.751 -403.042)" fill="none" stroke="#4f3026" stroke-linecap="round" stroke-linejoin="round" stroke-width="1.128"/>
            <path id="Path_301" data-name="Path 301" d="M1253.429,406.348a2.39,2.39,0,0,1,1.541.082" transform="translate(-1241.123 -396.374)" fill="none" stroke="#4f3026" stroke-linecap="round" stroke-linejoin="round" stroke-width="1.128"/>
            <path id="Path_302" data-name="Path 302" d="M1218.052,407.6a2.429,2.429,0,0,1,1.53-.186" transform="translate(-1213.091 -397.256)" fill="none" stroke="#4f3026" stroke-linecap="round" stroke-linejoin="round" stroke-width="1.128"/>
            <path id="Path_303" data-name="Path 303" d="M1220.691,412.84c.862-.24,1.323,1.627.374,1.837S1219.8,413.08,1220.691,412.84Z" transform="translate(-1214.764 -401.574)"/>
            <path id="Path_304" data-name="Path 304" d="M1253.32,412.6c.9-.073.933,1.838-.048,1.869S1252.395,412.675,1253.32,412.6Z" transform="translate(-1240.45 -401.398)"/>
            <path id="Path_305" data-name="Path 305" d="M1198.861,362.221c-.49-3.092,7.235-5.264,11.916-1.773,1,.748,1.6,2.535,2.8,1.069-.449,3.052-5.233,6.032-13.869,2.84a18.085,18.085,0,0,1-2.272,5.461c-.462.622-.737,1.013-1.219.012C1195.035,367.229,1196.424,362.314,1198.861,362.221Z" transform="translate(-1195.45 -358.658)" fill="#4f3026"/>
            <path id="Path_306" data-name="Path 306" d="M1266.546,378.28a11.369,11.369,0,0,0,.977,4.262c.645,1.51,1.08,2.659,1.375,1.569s.358-4.973-.564-6.742S1266.446,376.61,1266.546,378.28Z" transform="translate(-1251.511 -372.748)" fill="#4f3026"/>
            <path id="Path_307" data-name="Path 307" d="M1214.446,385.824c1.344,1.237,6.158,1.948,8.225,1.821" transform="translate(-1210.234 -380.184)" fill="none" stroke="#4f3026" stroke-linecap="round" stroke-linejoin="round" stroke-width="1.128"/>
            <path id="Path_308" data-name="Path 308" d="M1197.673,375.753c-3.315-1.293-4.685,4.913-2.349,7.893" transform="translate(-1194.157 -372.065)" fill="none" stroke="#4f3026" stroke-linecap="round" stroke-linejoin="round" stroke-width="1.128"/>
            <path id="Path_309" data-name="Path 309" d="M1238.46,446.254a1.494,1.494,0,0,1-2.079.04" transform="translate(-1227.615 -428.067)" fill="none" stroke="#4f3026" stroke-linecap="round" stroke-linejoin="round" stroke-width="1.128"/>
        </g>
        <g id="Group_121" data-name="Group 121" transform="translate(49.037 85.149)">
            <path id="Path_310" data-name="Path 310" d="M1345.517,773.568a11.988,11.988,0,0,0,1.324-4.789" transform="translate(-1345.517 -768.779)" fill="none" stroke="#e39f81" stroke-linecap="round" stroke-miterlimit="10" stroke-width="1.128"/>
        </g>
        <g id="Group_122" data-name="Group 122" transform="translate(3.211 85.108)">
            <path id="Path_311" data-name="Path 311" d="M1126.155,773.363a11.986,11.986,0,0,1-1.358-4.78" transform="translate(-1124.797 -768.583)" fill="none" stroke="#e39f81" stroke-linecap="round" stroke-miterlimit="10" stroke-width="1.128"/>
        </g>
        <path id="Path_312" data-name="Path 312" d="M1149.848,687.828a90.56,90.56,0,0,0-1.4,20.306c.174.016,18.2,0,18.2,0l.336-2.455.4,2.455s18.192.081,18.192,0c.032-6.24-.177-14.414-1.6-20.306C1176.347,691.114,1157.515,690.8,1149.848,687.828Z" transform="translate(-1140.255 -619.486)" fill="#6b6fe8"/>
        <path id="Path_313" data-name="Path 313" d="M1237.194,679.182a.462.462,0,1,1-.462-.462A.462.462,0,0,1,1237.194,679.182Z" transform="translate(-1209.915 -612.269)" fill="#e39f81"/>
    </g>
</svg>
