<svg id="Group_113" data-name="Group 113" xmlns="http://www.w3.org/2000/svg" width="42.537" height="155.286" viewBox="0 0 42.537 155.286">
    <path id="Path_264" data-name="Path 264" d="M273.288,507.9a19.2,19.2,0,0,1-2.219,8.711c-.557,1.18-1.342.834-1.387.023-.422.91-1.448-.015-.983-1.13.48-1.151.668-4.992.286-5.112s-.638.749-.86,1.595c-.32,1.222-1.346.838-1.25-.449.086-1.163,1.025-3.76,1.4-5.462.6-2.965-3.049-29.684-4.224-35.715-.032.834-1.95,11.583-1.95,14.452,0,4.643,3.007,9.8,3.507,23.335.3,8.141-1.885,59.933-2.033,66.076-.055,2.292,6.249,6.115,6.608,7.012.083.206-.09.587-.342.537a.389.389,0,0,1-.478.522.37.37,0,0,1-.649.32c.186.526-.447.912-.88.386.386,1-1.052,1.24-2.089.773a32.712,32.712,0,0,1-6.681-3.745c-1.359-1.218-1.091-1.75-1.2-4.4-.206-4.9-1.811-27.988-2.284-34.988-.4-5.862-2.274-23.383-2.5-30.325a4.419,4.419,0,0,1-1.8,0c-.223,6.942-2.1,24.464-2.5,30.325-.474,7-2.08,30.092-2.285,34.988-.11,2.646.157,3.178-1.2,4.4a29.083,29.083,0,0,1-6.681,3.745c-1.049.432-2.475.227-2.089-.773-.432.526-1.065.14-.88-.386a.37.37,0,0,1-.649-.32.389.389,0,0,1-.478-.522c-.25.05-.424-.332-.341-.537.36-.9,6.663-4.72,6.608-7.012-.147-6.143-2.389-57.935-2.088-66.076.5-13.539,3.35-18.692,3.35-23.335,0-2.868-1.706-13.618-1.738-14.452-1.2,6.551-4.829,32.751-4.224,35.715.372,1.7,1.312,4.3,1.4,5.462.094,1.286-.944,1.674-1.251.449-.238-.949-.479-1.716-.86-1.595s-.193,3.961.286,5.112c.465,1.115-.56,2.04-.983,1.13-.044.811-.83,1.157-1.387-.023a19.218,19.218,0,0,1-2.219-8.711c-.769-12.419,1.416-36.242,3.208-47.569a8.444,8.444,0,0,1,5.821-6.715c3.005-1.03,7.584-2.561,8.035-3.432a9.789,9.789,0,0,0,.385-3.471c0-.5-.022-.97-.045-1.341-.072-1.24,3.179-.709,3.706-.625.527-.085,3.778-.615,3.706.625-.009.139-.016.292-.023.455a23.863,23.863,0,0,0,.033,2.757,4.764,4.764,0,0,0,.331,1.6c.451.872,5.03,2.4,8.035,3.432a8.441,8.441,0,0,1,5.82,6.715C271.873,471.66,274.057,495.483,273.288,507.9Z" transform="translate(-230.909 -428.721)" fill="#f2cdbf"/>
    <path id="Path_265" data-name="Path 265" d="M323.587,452.48c-3.144,1.1-6.056-.069-7.248-1.871-.005-.315.068-.187.051-.552a.247.247,0,0,0-.023-.092c.552-.85,3.676-.047,3.676-.047h.012s2.78-.84,3.5-.194A23.87,23.87,0,0,0,323.587,452.48Z" transform="translate(-298.603 -432.615)" fill="#ebae8d"/>
    <g id="Group_110" data-name="Group 110" transform="translate(13.732)">
        <path id="Path_266" data-name="Path 266" d="M312.85,379.195s.422-3.875-.39-6.132a6.426,6.426,0,0,0-6.132-4.185h-.007c-3.533,0-5.484,2.988-6.119,4.752a14.449,14.449,0,0,0-.4,5.535.3.3,0,0,0-.43.04c-.434.477.418,2.412.528,2.776s-.044,1.8.721,1.857c.235,1.381,2.962,4.471,5.94,4.471,3.132,0,5.251-3.256,5.467-4.471.765-.06.611-1.493.721-1.857s.926-2.405.586-2.8A.317.317,0,0,0,312.85,379.195Z" transform="translate(-298.793 -368.748)" fill="#f2cdbf"/>
        <path id="Path_267" data-name="Path 267" d="M334.239,417.762c-.03,1.5.713,2.465.687,3.153s-.67.623-1.038.618" transform="translate(-326.24 -407.483)" fill="none" stroke="#4f3026" stroke-linecap="round" stroke-linejoin="round" stroke-width="1.128"/>
        <path id="Path_268" data-name="Path 268" d="M345.657,409.629a1.667,1.667,0,0,1,1.264.08" transform="translate(-335.566 -400.967)" fill="none" stroke="#4f3026" stroke-linecap="round" stroke-linejoin="round" stroke-width="1.128"/>
        <path id="Path_269" data-name="Path 269" d="M316.646,410.854a1.7,1.7,0,0,1,1.255-.182" transform="translate(-312.578 -401.828)" fill="none" stroke="#4f3026" stroke-linecap="round" stroke-linejoin="round" stroke-width="1.128"/>
        <path id="Path_270" data-name="Path 270" d="M318.811,416.775c.707-.213,1.085,1.444.307,1.631S318.082,416.988,318.811,416.775Z" transform="translate(-313.95 -406.686)"/>
        <path id="Path_271" data-name="Path 271" d="M345.567,416.56c.742-.065.766,1.633-.039,1.66S344.809,416.629,345.567,416.56Z" transform="translate(-335.014 -406.529)"/>
        <path id="Path_272" data-name="Path 272" d="M300.909,371.134c-.362-1.916,5.886-4.6,9.724-1.391.823.687,1.361,2.091,2.345.745-.369,2.8-4.291,5.539-11.373,2.608a17.728,17.728,0,0,1-1.863,5.015c-.378.571-.6.93-1,.011C297.772,375.732,298.91,371.219,300.909,371.134Z" transform="translate(-298.112 -368.253)" fill="#4f3026"/>
        <path id="Path_273" data-name="Path 273" d="M356.414,382.2a12.919,12.919,0,0,0,.8,4.165c.529,1.475.886,2.6,1.128,1.533a15.391,15.391,0,0,0-.462-6.588C357.124,379.584,356.331,380.571,356.414,382.2Z" transform="translate(-344.084 -377.881)" fill="#4f3026"/>
        <path id="Path_274" data-name="Path 274" d="M313.689,389.574c1.285,1.584,5.05,2.372,6.745,2.247" transform="translate(-310.235 -385.147)" fill="none" stroke="#4f3026" stroke-linecap="round" stroke-linejoin="round" stroke-width="1.128"/>
        <path id="Path_275" data-name="Path 275" d="M299.934,381.62c-2.719-1.2-3.842,4.564-1.926,7.332" transform="translate(-297.051 -378.716)" fill="none" stroke="#4f3026" stroke-linecap="round" stroke-linejoin="round" stroke-width="1.128"/>
        <path id="Path_276" data-name="Path 276" d="M333.1,448.218a1.136,1.136,0,0,1-1.757-.077" transform="translate(-324.224 -431.555)" fill="none" stroke="#4f3026" stroke-linecap="round" stroke-linejoin="round" stroke-width="1.128"/>
    </g>
    <g id="Group_111" data-name="Group 111" transform="translate(38.788 83.157)">
        <path id="Path_277" data-name="Path 277" d="M417.734,773.57a11.985,11.985,0,0,0,1.324-4.789" transform="translate(-417.734 -768.781)" fill="none" stroke="#e39f81" stroke-linecap="round" stroke-miterlimit="10" stroke-width="1.128"/>
    </g>
    <g id="Group_112" data-name="Group 112" transform="translate(2.377 83.116)">
        <path id="Path_278" data-name="Path 278" d="M243.718,773.364a11.987,11.987,0,0,1-1.358-4.779" transform="translate(-242.36 -768.585)" fill="none" stroke="#e39f81" stroke-linecap="round" stroke-miterlimit="10" stroke-width="1.128"/>
    </g>
    <path id="Path_279" data-name="Path 279" d="M268.6,684.859c-1.319,5.285-1.657,13.052-1.426,18.273.134.015,12.818,0,12.818,0l.1-2.213,1.489.034.088,2.145s12.815.075,12.815,0a70.981,70.981,0,0,0-1.33-18.221C286.757,686.451,274.089,686.279,268.6,684.859Z" transform="translate(-259.589 -619.126)" fill="#6b6fe8"/>
    <circle id="Ellipse_3" data-name="Ellipse 3" cx="0.462" cy="0.462" r="0.462" transform="translate(20.958 63.548)" fill="#e39f81"/>
</svg>
