<svg xmlns="http://www.w3.org/2000/svg" width="56.254" height="157.707" viewBox="0 0 56.254 157.707">
    <g id="Group_128" data-name="Group 128" transform="translate(0)">
        <g id="Group_124" data-name="Group 124" transform="translate(0 18.265)">
            <path id="Path_314" data-name="Path 314" d="M1611.694,507.9a16.019,16.019,0,0,1-2.963,8.711c-.686,1.18-1.656.834-1.711.023-.523.91-1.788-.015-1.214-1.13.592-1.151.825-4.992.353-5.112s-.334.509-.729,1.735-1.67.7-1.552-.589a40.828,40.828,0,0,1,1.008-5.462c.746-2.965-4.44-21.622-5.272-27.569a67.711,67.711,0,0,0,.3,9.631c.807,5.3,2.834,9.357,3.451,22.9.171,3.772-.187,16.3-1.013,29.268-.957,15.017-2.955,30.627-3.053,33.922-.068,2.293,5.428,6.115,5.871,7.012a.411.411,0,0,1-.42.538c.211.369-.336.633-.592.522.148.3-.419.671-.8.32.227.526-.554.912-1.087.386.477,1-1.3,1.24-2.579.773a38.884,38.884,0,0,1-7.851-3.745c-1.678-1.217-1.879-2.386-2.015-5.031-.253-4.9-2.96-27.352-3.544-34.352-.491-5.862-2.329-19.023-2.605-25.965,0,0-.035,0-.037,0-.274,6.942-1.845,20.1-2.336,25.966-.584,7-3.29,29.456-3.544,34.352-.137,2.645-.23,3.814-1.909,5.031a40.3,40.3,0,0,1-8.381,3.745c-1.295.432-3.055.227-2.579-.773-.533.526-1.315.14-1.086-.386-.382.351-.948-.023-.8-.32-.255.111-.8-.153-.592-.522a.412.412,0,0,1-.421-.538c.444-.9,6.365-4.72,6.3-7.012-.1-3.285-2.14-18.959-3.139-34.077-.87-13.147-1.166-25.873-.995-29.661.618-13.539,2.286-17.289,3.3-22.776a55.6,55.6,0,0,0,.392-9.2c-.832,5.947-5.9,24.6-5.154,27.569a41,41,0,0,1,1.009,5.462c.117,1.286-1.16,1.747-1.553.524s-.26-1.791-.728-1.67-.239,3.961.352,5.112c.575,1.115-.692,2.04-1.213,1.13-.054.811-1.025,1.157-1.71-.023a15.987,15.987,0,0,1-2.963-8.711c-.95-12.419,1.525-31.29,6.418-46.721.856-2.7,2.838-6.357,7.187-7.564,3.71-1.03,8.375-2.561,8.932-3.432a6.088,6.088,0,0,0,.469-2.594c.025-.814-.007-1.636-.05-2.218-.088-1.239,4.3-.709,4.947-.625.6-.078,4.352-.532,4.884.358a.442.442,0,0,1,.06.266c-.013.185-.025.392-.035.617,0,.032,0,.064,0,.1h0a18.485,18.485,0,0,0,.05,2.471,6.009,6.009,0,0,0,.226,1.215,1.89,1.89,0,0,0,.184.412.644.644,0,0,0,.1.118c.028.027.058.053.093.081,1.123.893,5.3,2.279,8.737,3.234,4.35,1.207,6.3,4.874,7.187,7.564C1610.946,478.381,1612.643,495.483,1611.694,507.9Z" transform="translate(-1555.689 -444.563)" fill="#f2cdbf"/>
        </g>
        <path id="Path_315" data-name="Path 315" d="M1678.329,456.116c-4.1,1.315-8.465.8-10.15-1.948,0-.017-.079-.736-.079-.76.026-.371.463-.24.439-.721a.314.314,0,0,0-.036-.126c.833-1.161,5.543-.064,5.543-.064h.019a18.148,18.148,0,0,1,3.7-.6h0a18.5,18.5,0,0,0,.05,2.471,6.017,6.017,0,0,0,.226,1.215,1.885,1.885,0,0,0,.184.411A.644.644,0,0,0,1678.329,456.116Z" transform="translate(-1644.761 -432.112)" fill="#ebae8d"/>
        <path id="Path_316" data-name="Path 316" d="M1715.454,447.378a.282.282,0,0,0-.019-.043l.012.006A.193.193,0,0,1,1715.454,447.378Z" transform="translate(-1682.269 -428.495)" fill="#ebae8d"/>
        <g id="Group_125" data-name="Group 125" transform="translate(18.462 0)">
            <path id="Path_317" data-name="Path 317" d="M1664.766,375.2s.539-3.966-.5-6.275c-.81-1.805-3.314-4.283-7.822-4.283h-.009a8.522,8.522,0,0,0-7.806,4.863,11.949,11.949,0,0,0-.509,5.664.451.451,0,0,0-.549.041c-.553.488.533,2.468.673,2.84s-.056,1.84.92,1.9c.268,1.228.835,6.862,7.552,6.862,6.538,0,6.757-5.8,7-6.862.976-.061.78-1.528.92-1.9s1.181-2.462.747-2.863A.468.468,0,0,0,1664.766,375.2Z" transform="translate(-1646.834 -362.971)" fill="#f2cdbf"/>
            <path id="Path_318" data-name="Path 318" d="M1692.051,414.672c-.038,1.532.91,2.523.876,3.227s-.855.637-1.324.632" transform="translate(-1681.847 -402.613)" fill="none" stroke="#4f3026" stroke-linecap="round" stroke-linejoin="round" stroke-width="1.128"/>
            <path id="Path_319" data-name="Path 319" d="M1706.616,406.348a2.608,2.608,0,0,1,1.612.082" transform="translate(-1693.743 -395.944)" fill="none" stroke="#4f3026" stroke-linecap="round" stroke-linejoin="round" stroke-width="1.128"/>
            <path id="Path_320" data-name="Path 320" d="M1669.609,407.6a2.648,2.648,0,0,1,1.6-.186" transform="translate(-1664.419 -396.826)" fill="none" stroke="#4f3026" stroke-linecap="round" stroke-linejoin="round" stroke-width="1.128"/>
            <path id="Path_321" data-name="Path 321" d="M1672.37,412.84c.9-.24,1.384,1.627.391,1.837S1671.44,413.08,1672.37,412.84Z" transform="translate(-1666.17 -401.145)"/>
            <path id="Path_322" data-name="Path 322" d="M1706.5,412.6c.946-.073.977,1.838-.05,1.869S1705.534,412.675,1706.5,412.6Z" transform="translate(-1693.039 -400.969)"/>
            <path id="Path_323" data-name="Path 323" d="M1649.533,360.583c-.512-3.092,7.15-5.858,12.046-2.367,1.049.748,2.095,3.129,3.35,1.663-.47,3.052-5.474,6.032-14.508,2.84a17.666,17.666,0,0,1-2.377,5.461c-.483.622-.771,1.013-1.276.012C1645.531,365.591,1646.984,360.676,1649.533,360.583Z" transform="translate(-1645.965 -356.591)" fill="#4f3026"/>
            <path id="Path_324" data-name="Path 324" d="M1720.338,378.28a10.954,10.954,0,0,0,1.022,4.262c.675,1.51,1.13,2.659,1.438,1.569s.375-4.973-.59-6.742S1720.233,376.61,1720.338,378.28Z" transform="translate(-1704.61 -372.319)" fill="#4f3026"/>
            <path id="Path_325" data-name="Path 325" d="M1665.837,385.824c1.406,1.237,6.442,1.948,8.6,1.821" transform="translate(-1661.43 -379.755)" fill="none" stroke="#4f3026" stroke-linecap="round" stroke-linejoin="round" stroke-width="1.128"/>
            <path id="Path_326" data-name="Path 326" d="M1648.29,375.753c-3.468-1.293-4.9,4.913-2.457,7.893" transform="translate(-1644.612 -371.636)" fill="none" stroke="#4f3026" stroke-linecap="round" stroke-linejoin="round" stroke-width="1.128"/>
            <path id="Path_327" data-name="Path 327" d="M1690.957,446.254a1.615,1.615,0,0,1-2.175.04" transform="translate(-1679.612 -427.638)" fill="none" stroke="#4f3026" stroke-linecap="round" stroke-linejoin="round" stroke-width="1.128"/>
        </g>
        <g id="Group_126" data-name="Group 126" transform="translate(51.335 85.616)">
            <path id="Path_328" data-name="Path 328" d="M1802.945,773.673a11.984,11.984,0,0,0,1.58-4.711" transform="translate(-1802.945 -768.962)" fill="none" stroke="#e39f81" stroke-linecap="round" stroke-miterlimit="10" stroke-width="1.128"/>
        </g>
        <g id="Group_127" data-name="Group 127" transform="translate(3.258 85.566)">
            <path id="Path_329" data-name="Path 329" d="M1572.942,773.438a11.987,11.987,0,0,1-1.56-4.718" transform="translate(-1571.382 -768.72)" fill="none" stroke="#e39f81" stroke-linecap="round" stroke-miterlimit="10" stroke-width="1.128"/>
        </g>
        <path id="Path_330" data-name="Path 330" d="M1596.861,687.828a105.824,105.824,0,0,0-1.694,22.562c.184.017,19.63,0,19.63,0l.08-1.9.088,1.892s19.841.09,19.841.005c.033-6.607-.505-16.323-2.01-22.562C1624.709,691.307,1604.98,690.977,1596.861,687.828Z" transform="translate(-1586.91 -619.057)" fill="#6b6fe8"/>
        <path id="Path_331" data-name="Path 331" d="M1691.919,688.073a.462.462,0,1,1-.462-.462A.462.462,0,0,1,1691.919,688.073Z" transform="translate(-1662.903 -618.885)" fill="#e39f81"/>
    </g>
</svg>
