<svg xmlns="http://www.w3.org/2000/svg" width="47.388" height="157.278" viewBox="0 0 47.388 157.278">
    <g id="Group_118" data-name="Group 118" transform="translate(0)">
        <g id="Group_114" data-name="Group 114" transform="translate(0 17.836)">
            <path id="Path_280" data-name="Path 280" d="M719.042,507.9c-.37,5.367-1.793,7.416-2.473,8.711-.62,1.18-1.5.834-1.545.023-.471.91-1.613-.015-1.1-1.13.534-1.151.745-4.992.319-5.112s-.6.581-.958,1.807-1.5.626-1.394-.661a52.972,52.972,0,0,1,1.2-5.462c.673-2.965-3.364-26.48-4.115-32.428-.035.833-.727,11.261-.116,14.455,1,5.242,1.965,6.507,2.523,20.045.334,8.141-2.536,59.933-2.7,66.076-.061,2.293,6.487,6.115,6.888,7.012.092.206-.1.587-.38.538.19.369-.3.633-.533.522.133.3-.379.671-.722.32.206.526-.5.912-.981.386.43,1-1.172,1.24-2.327.773a37.736,37.736,0,0,1-7.444-3.745c-1.514-1.217-1.216-1.75-1.339-4.4-.229-4.9-2.254-27.988-2.781-34.988-.443-5.862-2.3-22.217-2.546-29.159a5.477,5.477,0,0,1-2,0c-.248,6.942-2.1,23.3-2.546,29.159-.527,7-2.552,30.092-2.78,34.988-.124,2.646.175,3.178-1.34,4.4a33.548,33.548,0,0,1-7.443,3.745c-1.169.432-2.757.227-2.328-.773-.481.526-1.187.14-.98-.386-.345.351-.856-.023-.723-.32-.23.111-.722-.153-.533-.522-.279.05-.472-.332-.38-.538.4-.9,6.951-4.72,6.889-7.012-.165-6.143-3.1-57.935-2.763-66.076.557-13.539,1.094-15.173,2.618-20.492.79-2.757-.113-13.175-.149-14.008-.751,5.948-4.789,29.463-4.115,32.428a53.263,53.263,0,0,1,1.2,5.462c.1,1.286-1.04,1.883-1.394.661s-.533-1.928-.958-1.807-.215,3.961.319,5.112c.519,1.115-.625,2.04-1.1,1.13-.049.811-.925,1.157-1.544-.023-.681-1.295-2.1-3.344-2.473-8.711-.857-12.419,1.56-36.242,3.557-47.569.489-2.771,2.561-5.509,6.485-6.715,3.348-1.03,8.131-2.561,8.633-3.432s.467-3.474.379-4.812c-.08-1.239,3.876-.709,4.463-.625.539-.078,3.927-.532,4.407.358a.482.482,0,0,1,.055.266,22.506,22.506,0,0,0,.01,3.186,4.429,4.429,0,0,0,.37,1.626c.5.872,5.286,2.4,8.633,3.432,3.924,1.207,6,3.945,6.485,6.715C717.481,471.66,719.9,495.483,719.042,507.9Z" transform="translate(-671.831 -444.563)" fill="#f2cdbf"/>
        </g>
        <path id="Path_281" data-name="Path 281" d="M776.613,450.319c-3.531,1.075-6.743.245-8.091-1.737-.006-.359.061-.724.042-1.141a.259.259,0,0,0-.028-.1c.646-.967,4.3-.053,4.3-.053h.015s2.523-.74,3.7-.416a.483.483,0,0,1,.055.266A22.5,22.5,0,0,0,776.613,450.319Z" transform="translate(-748.447 -428.488)" fill="#ebae8d"/>
        <g id="Group_115" data-name="Group 115" transform="translate(15.417 0)">
            <path id="Path_282" data-name="Path 282" d="M763.4,375.2s.463-3.966-.427-6.275a7.018,7.018,0,0,0-6.718-4.283h-.008a7.393,7.393,0,0,0-6.7,4.863,13.84,13.84,0,0,0-.437,5.664.345.345,0,0,0-.472.041c-.475.488.457,2.468.578,2.84s-.048,1.84.79,1.9a6.8,6.8,0,0,0,6.524,4.923,6.163,6.163,0,0,0,5.975-4.923c.839-.061.67-1.528.79-1.9s1.015-2.462.642-2.863A.362.362,0,0,0,763.4,375.2Z" transform="translate(-747.994 -363.4)" fill="#f2cdbf"/>
            <path id="Path_283" data-name="Path 283" d="M786.831,414.672c-.033,1.532.782,2.523.753,3.227s-.734.637-1.138.632" transform="translate(-778.067 -403.042)" fill="none" stroke="#4f3026" stroke-linecap="round" stroke-linejoin="round" stroke-width="1.128"/>
            <path id="Path_284" data-name="Path 284" d="M799.341,406.348a1.944,1.944,0,0,1,1.385.082" transform="translate(-788.284 -396.374)" fill="none" stroke="#4f3026" stroke-linecap="round" stroke-linejoin="round" stroke-width="1.128"/>
            <path id="Path_285" data-name="Path 285" d="M767.555,407.6a1.982,1.982,0,0,1,1.375-.186" transform="translate(-763.098 -397.256)" fill="none" stroke="#4f3026" stroke-linecap="round" stroke-linejoin="round" stroke-width="1.128"/>
            <path id="Path_286" data-name="Path 286" d="M769.926,412.84c.774-.24,1.188,1.627.336,1.837S769.128,413.08,769.926,412.84Z" transform="translate(-764.601 -401.574)"/>
            <path id="Path_287" data-name="Path 287" d="M799.243,412.6c.813-.073.839,1.838-.043,1.869S798.412,412.675,799.243,412.6Z" transform="translate(-787.68 -401.398)"/>
            <path id="Path_288" data-name="Path 288" d="M750.312,362.221c-.44-3.092,6.5-5.264,10.706-1.773.9.748,1.44,2.535,2.518,1.069-.4,3.052-4.7,6.032-12.461,2.84a19.241,19.241,0,0,1-2.042,5.461c-.415.622-.663,1.013-1.1.012C746.875,367.229,748.122,362.314,750.312,362.221Z" transform="translate(-747.248 -358.658)" fill="#4f3026"/>
            <path id="Path_289" data-name="Path 289" d="M811.127,378.28a12.449,12.449,0,0,0,.878,4.262c.579,1.51.97,2.659,1.235,1.569s.322-4.973-.506-6.742S811.037,376.61,811.127,378.28Z" transform="translate(-797.618 -372.748)" fill="#4f3026"/>
            <path id="Path_290" data-name="Path 290" d="M764.315,385.824c1.208,1.237,5.533,1.948,7.39,1.821" transform="translate(-760.53 -380.184)" fill="none" stroke="#4f3026" stroke-linecap="round" stroke-linejoin="round" stroke-width="1.128"/>
            <path id="Path_291" data-name="Path 291" d="M749.245,375.753c-2.979-1.293-4.21,4.913-2.11,7.893" transform="translate(-746.086 -372.065)" fill="none" stroke="#4f3026" stroke-linecap="round" stroke-linejoin="round" stroke-width="1.128"/>
            <path id="Path_292" data-name="Path 292" d="M785.891,446.254a1.247,1.247,0,0,1-1.868.04" transform="translate(-776.147 -428.067)" fill="none" stroke="#4f3026" stroke-linecap="round" stroke-linejoin="round" stroke-width="1.128"/>
        </g>
        <g id="Group_116" data-name="Group 116" transform="translate(43.26 85.103)">
            <path id="Path_293" data-name="Path 293" d="M880.2,773.346a11.989,11.989,0,0,0,1.324-4.789" transform="translate(-880.195 -768.557)" fill="none" stroke="#e39f81" stroke-linecap="round" stroke-miterlimit="10" stroke-width="1.128"/>
        </g>
        <g id="Group_117" data-name="Group 117" transform="translate(2.84 85.154)">
            <path id="Path_294" data-name="Path 294" d="M686.868,773.585a11.988,11.988,0,0,1-1.358-4.779" transform="translate(-685.51 -768.806)" fill="none" stroke="#e39f81" stroke-linecap="round" stroke-miterlimit="10" stroke-width="1.128"/>
        </g>
        <path id="Path_295" data-name="Path 295" d="M708.854,687.474a107.541,107.541,0,0,0-1.044,18.9c.152.015,15.125,0,15.125,0l.111-2.213,1.687.034.1,2.145s15.122.075,15.122,0a82.412,82.412,0,0,0-1.079-18.783C731.632,689.131,715.077,688.894,708.854,687.474Z" transform="translate(-700.281 -619.206)" fill="#6b6fe8"/>
        <circle id="Ellipse_4" data-name="Ellipse 4" cx="0.462" cy="0.462" r="0.462" transform="translate(23.203 65.865)" fill="#e39f81"/>
    </g>
</svg>
